<svg xmlns="http://www.w3.org/2000/svg" width="500" height="306" viewBox="0 0 1000.5 612.5"><style>.a{fill:#F3F3F3;}</style><path d="M216 379l74.8-60.6 46 56.8 -74.8 60.6L216 379zM270.3 446.1l268.3-217.4 46 56.8L316.3 502.8C316.3 502.8 270.3 446.1 270.3 446.1zM301.1 310L634 40.4l46 56.8L347.1 366.8 301.1 310 301.1 310z" fill="#FFF"/><path d="M315.8 507.5l273.5-221.6 -50.2-61.9L265.7 445.6 315.8 507.5zM289.4 444.8l56.3 7.3 -24.5-30.3 4.3-3.5 33.1 40.9 -56.2-7.3 24.4 30.1 -4.3 3.5L289.4 444.8 289.4 444.8zM351.5 396.2c11.1-9 27.7-7.4 36.8 3.8 9.1 11.3 7.1 27.6-4 36.6 -11.1 9-27.6 7.5-36.7-3.7C338.5 421.7 340.3 405.2 351.5 396.2L351.5 396.2zM381 432.6c8.8-7.2 10-20.3 2.9-29.1 -7.2-8.9-20.1-10.5-29.1-3.2 -8.9 7.2-10.1 20.3-2.9 29.1C359 438.2 372.1 439.8 381 432.6zM378.1 375.7l4.3-3.5 18.9 23.3c2.4 2.9 4.9 6.3 8.8 7.3 3.6 1 8-0.3 10.9-2.6 2.8-2.3 4.8-6 4.8-9.7 0.1-4.2-2.9-7.5-5.4-10.5l-18.9-23.3 4.3-3.5 19.8 24.5c3.4 4.3 5.9 7.9 5.4 13.6 -0.3 5.1-2.9 9.8-6.9 13 -3.7 3-8.6 4.6-13.3 4.2 -6.1-0.5-9.4-3.7-13-8.2L378.1 375.7 378.1 375.7zM414.7 346l35.3 20.8 -13-38.8 4.7-3.8 17.8 54.3 -49.4-28.6L414.7 346zM445.9 320.8l20.2-16.4 3.3 4 -15.9 12.9 9.4 11.6 15.4-12.5 3.3 4 -15.4 12.5 12.4 15.4 15.9-12.9 3.3 4 -20.2 16.4L445.9 320.8 445.9 320.8zM473.6 298.4l4.3-3.5 28.4 35.1 10.8-8.7 3.3 4 -15.1 12.2L473.6 298.4 473.6 298.4zM492.9 282.7l4.3-3.5 28.4 35.1 10.8-8.7 3.3 4 -15.1 12.2L492.9 282.7 492.9 282.7zM512.3 267l20.2-16.4 3.3 4 -15.9 12.9 9.4 11.6 15.4-12.5 3.3 4 -15.4 12.5 12.4 15.4 15.9-12.9 3.3 4 -20.2 16.4L512.3 267z" class="a"/><path d="M346.6 371.4L684.6 97.6l-50.2-61.9L296.5 309.5 346.6 371.4 346.6 371.4zM592.7 109c4.9 6.1 0.7 11-4.2 15l-1.3 1.1 -11.4-14.1 1.3-1C582.3 105.8 587.5 102.6 592.7 109L592.7 109zM405.1 261c4.9 6.1 0.7 11-4.2 15l-1.3 1.1 -11.4-14.1 1.3-1C394.7 257.8 399.9 254.6 405.1 261L405.1 261zM429.7 228.3c8.9-7.2 21.9-5.7 29.1 3.2 3.4 4.2 4.9 8.9 4.5 14.3l-12.4-1.6 -5.7 4.6 17.1 1.9c-0.9 3.7-3.4 7.6-6.3 9.9 -8.8 7.2-21.9 5.6-29.1-3.2C419.6 248.6 420.7 235.6 429.7 228.3L429.7 228.3zM331.7 308.8c5.1-4.1 10.6-7.8 15.7-1.4 4.5 5.6 1.6 10.4-3.2 14.3l-2.9 2.3 -11.3-13.9L331.7 308.8zM371.4 309.6l-6-21.1 19.2 10.4L371.4 309.6 371.4 309.6zM632 65.5l-15.9 12.9 9.4 11.6 15.4-12.5 3.3 4 -15.4 12.5 12.4 15.4 15.9-12.9 3.3 4 -20.2 16.4 -31.7-39.1 20.2-16.4L632 65.5 632 65.5zM628 126.9l-31.7-39.1 4.3-3.5 31.7 39.1L628 126.9zM617 135.7l-25.7-7.6 -1.1 0.9 13.9 17.2 -4.3 3.5 -31.7-39.1 5.6-4.6c7.4-6 15.9-9.6 23-0.8 4.9 6 4.6 13.3-1 18.7l26.6 7.5L617 135.7 617 135.7zM564 120.6l-15.9 12.9 9.4 11.6 15.4-12.5 3.3 4 -15.4 12.5 12.4 15.4 15.9-12.9 3.3 4 -20.2 16.4 -31.7-39.1 20.2-16.4L564 120.6zM539.3 140.6l-9.5 7.7 28.4 35.1 -4.3 3.5 -28.4-35.1 -9.4 7.6 -3.3-4 23.3-18.9L539.3 140.6zM512.1 162.7l-15.9 12.9 9.4 11.6 15.4-12.5 3.3 4 -15.4 12.5 12.4 15.4 15.9-12.9 3.3 4 -20.2 16.4 -31.7-39.1 20.2-16.4L512.1 162.7zM500.7 205.7c3.4 4.3 5.9 7.9 5.4 13.6 -0.3 5.1-2.9 9.8-6.9 13 -3.7 3-8.6 4.6-13.3 4.2 -6.1-0.5-9.4-3.7-13-8.2l-19.8-24.5 4.3-3.5 18.9 23.3c2.4 2.9 4.9 6.3 8.8 7.3 3.6 1 8-0.3 10.9-2.6 2.8-2.3 4.8-6 4.8-9.7 0.1-4.2-2.9-7.5-5.4-10.5l-18.9-23.3 4.3-3.5L500.7 205.7 500.7 205.7zM473.9 252.3l-6.1-0.9c-1.2 5-4.7 10.2-8.6 13.4 -11.1 9-27.6 7.5-36.7-3.7 -9.1-11.2-7.2-27.7 3.9-36.7 11.3-9.1 27.8-7.3 36.8 3.9 4.4 5.4 6 11.4 5.5 18.4l10.7 1.2L473.9 252.3 473.9 252.3zM429.4 287.7l-25.7-7.6 -1.1 0.9 13.9 17.2 -4.3 3.5 -31.7-39.1 5.6-4.6c7.4-6 15.9-9.6 23-0.8 4.9 6 4.6 13.3-1 18.7l26.6 7.5L429.4 287.7 429.4 287.7zM403.2 309L389.6 301.6l-16.6 13.5 4.3 14.9 -4.8 3.9 -15.2-55.6 50.7 26.8L403.2 309 403.2 309zM354.9 315.4c-0.9 4.3-3.9 7.5-7.2 10.1l-3.2 2.6 13.9 17.1 -4.3 3.5 -31.7-39.1 6.4-5.2c3.4-2.7 6.9-5.4 11.4-5.8 4.5-0.3 8.8 1.9 11.6 5.4C354.4 307.1 355.7 311.4 354.9 315.4L354.9 315.4z" class="a"/><path d="M251.3 346.1l-40 32.4 50.2 61.9 80-64.8 -50.2-61.9L251.3 346.1zM283.6 380.8l13.2-10.7 -19.2-10.4L283.6 380.8 283.6 380.8zM315.4 380.1l-13.6-7.4 -16.6 13.5 4.3 14.9 -4.8 3.9 -15.2-55.6 50.7 26.8L315.4 380.1 315.4 380.1zM284 405.6l-15.1 12.2 -31.7-39.1 4.3-3.5 28.4 35.1 10.8-8.7L284 405.6z" class="a"/></svg>
